<svg xmlns="http://www.w3.org/2000/svg" viewBox="0 0 496.1 496.11"><path d="M340.7,72c-7-12.73-6-24.21,2.62-32.76s19.64-9.46,33.36-2.1c6.58-6.93,13.08-14.56,20.38-21.33a58.86,58.86,0,0,1,83.62,82.73c-3.93,4.29-8.5,8-12.77,12l.6,1.26c1.34.1,2.68.26,4,.3a23.69,23.69,0,0,1,23.4,23.71q.06,168.24,0,336.48c0,13.71-10.6,23.77-24.82,23.78H25.61C9.88,496,0,486.25,0,470.6v-333C0,122,9.9,112.1,25.61,112.1q134.73,0,269.48.08a12.05,12.05,0,0,0,9.51-4C316.48,96,328.58,84.13,340.7,72Zm139.09,152.3c-1.05-.13-1.54-.24-2-.24-39.81,0-79.61-.06-119.42.11-2,0-4.32,1.44-5.8,2.91-19.18,19-38.19,38.13-57.38,57.09a16.5,16.5,0,0,1-7.11,4c-16.84,4.44-33.76,8.62-50.94,13,18.1,27.14,36,54,54,80.74.9,1.34,3.59,2.07,5.44,2.08q89.19.15,178.39.07c1.59,0,3.19-.14,4.83-.23ZM16,440v28c0,9.74,2.32,12.1,12,12.1H468.86c8.38,0,11.13-2.72,11.14-11v-64c0-1.6-.14-3.2-.2-4.65H320v7.37c0,7.65.6,8.26,8.21,8.26h99.46c11.67,0,20.2,8.5,20.33,20.06v8.5A19.58,19.58,0,0,1,428.46,464q-120.46.09-240.92,0a19.33,19.33,0,0,1-19.39-17.83c-.36-4.87-2.54-6.2-7-6.17-18.16.11-36.32,0-54.48,0Zm.21-56c5.4,0,10.24-.21,15,.08,3.23.2,5.06-.94,6.83-3.62q24.21-36.66,48.67-73.13c17.36-26,48.83-26.11,66.37-.22,3.52,5.19,7,10.4,10.87,16.15,4.44-6.58,8.59-12.53,12.47-18.67.65-1,.34-2.87.07-4.25-1.71-8.63-.07-16.75,6.47-22.45,7.87-6.86,11.95-15.1,13.47-25.12.62-4.08,2-8.06,3-12.09,1.33-5.4,2.66-10.81,4-16.33H16.19Zm0,40H163.28c10.86,0,19.34,7.17,20.61,17.2.83,6.56,1.09,6.79,7.76,6.79H333.11c30.5,0,61,.05,91.48-.09,2.24,0,6.08-1,6.4-2.19a21.39,21.39,0,0,0,.14-11.09c-.43-1.47-4.65-2.54-7.15-2.55-33.33-.17-66.65-.07-100-.14-11.36,0-19.84-8.56-20-19.87-.05-3.93,0-7.87,0-11.73H16.21Zm372.71-256.8L347,125.91,358.28,114l41.19,41.54,11.92-11.07L352,85,228.76,208.15l59,59L316,238.81l-25.15-24.63,11.38-12.39,25,25.64c4.48-4,8.69-7.65,13.35-11.74L298.4,173.82l11.75-11.29,41.47,41.93,13-12.88-25.47-25.16L350.21,154l25.68,26.27ZM16,207.94H206.56c2.12-2.82,3.62-5.37,5.63-7.4q33.81-34,67.81-67.88c1.23-1.23,2.38-2.55,4.26-4.58H26.15c-7.09,0-10.08,3-10.17,9.95-.06,4,0,8,0,12Zm168.72,176c-1.35-2.12-2.19-3.52-3.1-4.88l-41.78-62.67c-11.05-16.54-28.62-16.53-39.68,0q-21.06,31.53-42.07,63.1c-.87,1.31-1.6,2.7-2.62,4.43Zm204.1-336,59.31,59.36c7.08-6.77,15.16-13.35,21.85-21.12,14.49-16.86,12.93-41.87-2.83-57.53C451.6,13.15,426.69,11.7,410,26,402.2,32.75,395.61,40.82,388.82,47.9ZM425.16,156l-51.82,51.77H480c0-23.95.07-47.57-.05-71.19,0-5.19-3.33-8.18-8.58-8.46-2.63-.15-5.28,0-8.18,0,2.36,11.49-.48,20.92-9.92,27.5S434.24,161.51,425.16,156ZM273,384.11l-50.36-75.33c-10.26,11.56-21.46,14.35-34.65,8-4.48,6.73-8.88,13.16-13,19.75a4.44,4.44,0,0,0,.34,3.87Q189,361.19,203,381.83a5.61,5.61,0,0,0,3.89,2.19C228.52,384.15,250.14,384.11,273,384.11ZM220.21,224.75c-2.07,8.14-4.18,16.16-6.14,24.23-3.6,14.87-5.2,30.69-19.66,40.3a3.9,3.9,0,0,0-1.62,3c.42,3.09.4,6.93,2.23,8.93,1.68,1.83,5.71,2.54,8.42,2.07,2.44-.41,4.94-2.73,6.65-4.83a34.16,34.16,0,0,1,22.64-12.94A97,97,0,0,0,243.39,283c9.34-2.37,18.68-4.78,27.88-7.14C254.12,258.69,237.33,241.89,220.21,224.75Zm227.67-91.27a29.62,29.62,0,0,0-3.55-5.49c-5-5.34-10.31-10.42-15.49-15.61L368.76,52.3c-2.82-2.82-5.81-5.06-10.13-3.73-7.45,2.3-8.69,10-2.52,16.19q37.42,37.5,74.93,74.91a17,17,0,0,0,4.75,3.53C441.5,145.73,448.1,141.11,447.88,133.48Z"/><path d="M352.12,255.76V240.52H463.57v15.24Z"/><path d="M463.73,272.44v15.4H352.4v-15.4Z"/><path d="M352.22,319.74V304.37H463.73v15.37Z"/><path d="M463.55,352H352.41V336.45H463.55Z"/><path d="M96,272.19a32,32,0,1,1-31.92-32.08h0A31.76,31.76,0,0,1,96,271.76ZM64.1,288a16,16,0,1,0-.24-32c-8.47.06-16,7.68-15.87,16.11S55.62,288.17,64.1,288Z"/><path d="M32.35,144.33H79.7v47.35H32.35Zm15.82,31.41H63.75V160.36H48.17Z"/><path d="M96.35,144.33H143.7v47.35H96.35Zm15.88,16v15.5h15.41v-15.5Z"/><path d="M160.35,144.33H207.7v47.35H160.35Zm15.87,16v15.52h15.44V160.29Z"/></svg>