<svg xmlns="http://www.w3.org/2000/svg" viewBox="0 0 369.57 369.53"><path d="M242.23,271.44H235.9q-114.74,0-229.48.13c-4.95,0-6.43-1.1-6.42-6.3q.27-129.48,0-259C0,1.11,1.45,0,6.42,0Q121.65.22,236.9.1h5.33Zm-11.67-11.95V12.18H12.12V259.49Z"/><path d="M345.91,346H150.3V283.15h11.24v51.51h5.19c19.33,0,38.66.06,58-.11,1.85,0,4.42-.88,5.44-2.25q33.35-45.24,66.36-90.73a9.12,9.12,0,0,0,.72-1.74l-26.66,5.24c1.35-2.21,2.18-3.66,3.09-5.06,18.68-28.76,37.18-57.64,56.2-86.17,4.31-6.47,5.61-12.84,4.41-20.67h-80v-11.6H346ZM334.56,169.83l-1-.47-38.18,58.71,29.71-5.73L243.44,334.21h91.12Z"/><path d="M357.33,109.78H254.2V98.34c1.63-.09,3.25-.24,4.87-.24,35,0,70,.08,105-.11,4.53,0,5.51,1.38,5.5,5.67q-.18,130.23,0,260.44c0,4-.88,5.44-5.19,5.43q-116.24-.19-232.45-.11c-1.46,0-2.92-.18-4.65-.3V283.17h11.34v74.25H357.33Z"/><path d="M323.23,86.59H260.16V52.21c1.72-.09,3.34-.24,5-.24,17.81,0,35.62.11,53.43-.08,3.8,0,4.84,1.17,4.76,4.84C323.09,66.53,323.23,76.33,323.23,86.59ZM271.74,64V74.73h39.59V64"/><path d="M109.46,317.29H46.7V283.07h62.76ZM58.25,305.53H97.84V294.82H58.25Z"/><path d="M219.39,23.53V248c-1.79.11-3.4.3-5,.3q-93,0-185.95.12c-4.16,0-5.3-1.2-5.29-5.33q.18-107.22.1-214.44c0-1.62.16-3.24.27-5.14Zm-12,132.31V35.24H35.11V97.1c1.26-1.57,2.07-2.52,2.81-3.52,12.24-16.49,27-17.16,39.94-1.2,5.3,6.54,9.33,14.12,13.82,21.31,4.22,6.76,8.2,13.68,12.45,20.42,2.35,3.75,5.79,5.67,10.22,3.95a169.88,169.88,0,0,0,16.37-7c11.56-6,17.76-5.54,27.9,2.64,1.94,1.56,3.74,3.31,5.56,5,5,4.66,9.83,9.49,15,13.94a12.06,12.06,0,0,0,6.56,3C192.85,156.08,200,155.84,207.39,155.84ZM35.17,214.78c2.07,0,3.87.1,5.65,0,16.63-1,33.26-1.87,49.86-3.19,11.11-.89,22.16-2.41,33.22-3.79,3.49-.44,5.91-1.56,4.35-6.24-2-5.91,0-10,5.57-12.8a24.44,24.44,0,0,1,9-2.81c17.25-1.24,34.53-2.19,51.81-3.13,4.27-.23,8.55,0,12.85,0V167.64c-6.54,0-12.71-.23-18.85.07a23.8,23.8,0,0,1-17-6c-3.18-2.67-6.17-5.58-9.21-8.43-3.77-3.53-7.39-7.23-11.28-10.62-5.59-4.87-7.73-5-14.34-1.53-3,1.55-5.74,3.41-8.78,4.74-20.22,8.84-28,4.25-37.15-10.33-4.58-7.33-8.46-15.1-13-22.45A109.79,109.79,0,0,0,66.58,97.3C60.66,90.72,55,91.17,49.35,98a46,46,0,0,0-5.27,7.85c-5.84,11.14-10.5,22.51-9.3,35.63.67,7.33.12,14.77.12,21.54,10.61-.4,20.39-1.25,30.15-1,11,.28,21.94,2.12,31.51,8.18,10.15,6.43,10.21,16.93.09,23.31a45.82,45.82,0,0,1-11.8,5.17C68.53,203.27,52,202.76,35.17,200Zm-.09,21.54H207.5V194.37c-22.78.55-45.31-.39-67.61,4,2.37,11.64-1.61,18.8-12.49,20.32-18.58,2.59-37.3,4.29-56,6-12,1.09-24.12,1.5-36.33,2.23Zm0-49c16.86,6.33,50.17,3,57.23-6.32-18.57-9.71-37.67-8.44-57.23-5.11Z"/><path d="M161.75,104a28.8,28.8,0,1,1,.26,0ZM144.66,74.9A17.1,17.1,0,1,0,162,58h0a17.14,17.14,0,0,0-17.26,16.94Z"/></svg>